<?xml version="1.0" standalone="no"?>
<!DOCTYPE svg PUBLIC "-//W3C//DTD SVG 20010904//EN"
 "http://www.w3.org/TR/2001/REC-SVG-20010904/DTD/svg10.dtd">
<svg version="1.0" xmlns="http://www.w3.org/2000/svg"
 width="507.000000pt" height="507.000000pt" viewBox="0 0 507.000000 507.000000"
 preserveAspectRatio="xMidYMid meet">
<metadata>
Created by potrace 1.14, written by Peter Selinger 2001-2017
</metadata>
<g transform="translate(0.000000,507.000000) scale(0.100000,-0.100000)"
fill="#000000" stroke="none">
<path d="M2389 4565 c-2 -2 -38 -6 -79 -8 -41 -3 -75 -6 -75 -7 0 -1 -7 -3
-15 -5 -8 -1 -42 -9 -75 -16 -33 -7 -64 -14 -70 -14 -27 -4 -146 -41 -210 -66
-16 -7 -32 -13 -35 -14 -55 -21 -87 -35 -145 -65 -108 -57 -189 -103 -203
-117 -8 -7 -23 -18 -34 -24 -22 -12 -26 -15 -123 -94 -70 -58 -225 -209 -225
-220 0 -3 -10 -16 -23 -28 -12 -12 -36 -40 -52 -62 -16 -22 -31 -42 -34 -45
-10 -9 -85 -123 -104 -160 -11 -19 -28 -49 -38 -66 -10 -17 -16 -34 -12 -37 3
-4 2 -7 -4 -7 -6 0 -16 -15 -23 -32 -7 -18 -22 -53 -33 -78 -11 -25 -20 -51
-20 -57 0 -7 -4 -13 -8 -13 -3 0 -9 -10 -12 -22 -3 -13 -16 -61 -30 -108 -14
-47 -28 -96 -31 -110 -16 -82 -33 -180 -42 -245 -5 -39 -5 -330 0 -375 3 -19
8 -64 11 -100 4 -36 10 -67 14 -70 3 -3 7 -16 9 -30 3 -34 9 -65 11 -65 2 0 4
-11 7 -25 2 -14 7 -32 11 -40 3 -8 8 -23 9 -33 5 -22 38 -122 55 -162 7 -16
13 -32 13 -35 2 -10 90 -185 96 -190 3 -3 14 -21 23 -40 20 -40 39 -73 48 -80
3 -3 20 -26 37 -52 18 -25 39 -54 48 -62 8 -9 13 -16 10 -16 -7 0 52 -67 159
-177 49 -51 93 -93 97 -93 4 0 18 -10 30 -22 13 -13 37 -33 53 -45 17 -12 51
-37 78 -57 26 -20 47 -34 47 -32 0 3 24 -11 52 -30 29 -19 58 -34 65 -34 7 0
13 -3 13 -8 0 -8 121 -68 133 -64 4 1 7 -3 7 -8 0 -5 3 -9 8 -8 4 1 21 -4 37
-11 61 -25 135 -49 135 -44 0 3 6 1 13 -4 6 -6 37 -16 67 -22 30 -7 62 -15 70
-18 17 -7 19 -7 105 -23 164 -29 462 -31 629 -5 72 12 261 57 271 65 6 5 27
11 48 15 20 4 37 10 37 14 0 4 10 7 22 8 11 1 24 6 27 10 3 4 13 9 21 11 18 4
153 64 160 72 3 3 31 18 63 35 31 16 57 33 57 37 0 4 4 8 9 8 14 0 91 52 91
62 0 4 4 7 8 5 9 -2 62 37 131 98 50 43 211 205 211 211 0 4 9 15 52 65 9 11
34 46 55 77 21 31 41 59 44 62 3 3 16 25 30 50 13 25 26 47 30 50 8 8 86 169
112 235 38 94 91 283 103 370 2 17 6 41 9 55 23 111 23 401 0 545 -16 100 -31
174 -42 205 -4 8 -8 24 -10 35 -4 26 -42 144 -53 170 -5 11 -24 54 -42 95 -84
193 -230 407 -384 564 -96 98 -289 256 -312 256 -6 0 -12 3 -14 8 -6 14 -103
70 -218 125 -109 53 -210 91 -310 118 -53 15 -46 13 -90 22 -19 4 -46 10 -60
13 -27 5 -64 11 -125 20 -47 7 -371 15 -376 9z"/>
</g>
</svg>
