<svg class="animated" id="freepik_stories-vision-board" xmlns="http://www.w3.org/2000/svg" viewBox="0 0 500 500" version="1.1" xmlns:xlink="http://www.w3.org/1999/xlink" xmlns:svgjs="http://svgjs.com/svgjs"><style>svg#freepik_stories-vision-board:not(.animated) .animable {opacity: 0;}svg#freepik_stories-vision-board.animated #freepik--Plant--inject-13 {animation: 1s 1 forwards cubic-bezier(.36,-0.01,.5,1.38) slideUp;animation-delay: 0s;}svg#freepik_stories-vision-board.animated #freepik--Board--inject-13 {animation: 1s 1 forwards cubic-bezier(.36,-0.01,.5,1.38) slideRight;animation-delay: 0s;}svg#freepik_stories-vision-board.animated #freepik--board-elements--inject-13 {animation: 1s 1 forwards cubic-bezier(.36,-0.01,.5,1.38) fadeIn;animation-delay: 0s;}svg#freepik_stories-vision-board.animated #freepik--Furniture--inject-13 {animation: 1s 1 forwards cubic-bezier(.36,-0.01,.5,1.38) slideLeft;animation-delay: 0s;}svg#freepik_stories-vision-board.animated #freepik--Character--inject-13 {animation: 1s 1 forwards cubic-bezier(.36,-0.01,.5,1.38) slideRight;animation-delay: 0s;}            @keyframes slideUp {                0% {                    opacity: 0;                    transform: translateY(30px);                }                100% {                    opacity: 1;                    transform: inherit;                }            }                    @keyframes slideRight {                0% {                    opacity: 0;                    transform: translateX(30px);                }                100% {                    opacity: 1;                    transform: translateX(0);                }            }                    @keyframes fadeIn {                0% {                    opacity: 0;                }                100% {                    opacity: 1;                }            }                    @keyframes slideLeft {                0% {                    opacity: 0;                    transform: translateX(-30px);                }                100% {                    opacity: 1;                    transform: translateX(0);                }            }        </style><g id="freepik--Shadow--inject-13" class="animable" style="transform-origin: 254.795px 454.19px;"><path d="M459.67,454.19c0,3.84-91.73,7-204.88,7s-204.87-3.12-204.87-7,91.73-7,204.87-7S459.67,450.34,459.67,454.19Z" style="fill: rgb(240, 240, 240); transform-origin: 254.795px 454.19px;" id="elginxggvanuu" class="animable"></path></g><g id="freepik--Plant--inject-13" class="animable" style="transform-origin: 183.082px 391.099px;"><path d="M161,419.91l.58,3.28.12.68,1.63,9.26.13.76,3,16.76a5.34,5.34,0,0,0,.21.81,5,5,0,0,0,.33.75,5.26,5.26,0,0,0,4.65,2.79h23.61a5.28,5.28,0,0,0,5.19-4.35l1.14-6.46.12-.69h0l1.68-9.54.23-1.32h0l.73-4.11.13-.78,1.38-7.84Z" style="fill: rgb(38, 50, 56); transform-origin: 183.43px 437.455px;" id="elf1a6j14eztr" class="animable"></path><path d="M184.4,419.91a62.93,62.93,0,0,0-5.39-13.4c-.23-.43-.88-.05-.65.38a61.76,61.76,0,0,1,5.26,13Z" style="fill: rgb(47, 48, 38); transform-origin: 181.356px 413.115px;" id="elbtrf08sq9t" class="animable"></path><path d="M181.83,370.06a282.82,282.82,0,0,1,1.25,47.9c0,.48.72.48.75,0a282.82,282.82,0,0,0-1.25-47.9c-.05-.48-.8-.48-.75,0Z" style="fill: rgb(47, 48, 38); transform-origin: 183.073px 394.01px;" id="elxdujxwfwlp" class="animable"></path><path d="M183.15,380.23s6.25-8.84,6.2-14.34c-.06-6.2-3.33-5.32-3.33-5.32s1.29-18.84-3.21-19.75c0,0-.79-15.51-7.28-13.43S172,342.82,172,342.82a9.8,9.8,0,0,0-2.14,4.76c-.67,5.28,4.25,14.09,4.25,14.09s-3,1.65-2,6.2,11.1,12.36,11.1,12.36Z" style="fill: rgb(24, 47, 110); transform-origin: 179.574px 353.714px;" id="el33lqo6i494b" class="animable"></path><path d="M178,341.45a293.49,293.49,0,0,1,5,41c0,.48.78.48.75,0a294.86,294.86,0,0,0-5-41.16c-.09-.48-.82-.28-.72.2Z" style="fill: rgb(38, 50, 56); transform-origin: 180.875px 361.912px;" id="elxvyyh42y1h" class="animable"></path><path d="M183.49,416.27s-13.42-4.3-14.8-9.09,0-6.79,0-6.79-10.16-14-6.77-17.13c0,0-7.26-13.72-.62-15.27s10.95,11.44,10.95,11.44a9.85,9.85,0,0,1,4.28,3c3.28,4.19,3.57,14.28,3.57,14.28s1.87-1,3.41,3.33,0,16.25,0,16.25Z" style="fill: rgb(24, 47, 110); transform-origin: 171.348px 392.076px;" id="eljxrl9h8kdhk" class="animable"></path><path d="M168.52,385.44A263.28,263.28,0,0,1,183,418.07c.17.45.89.26.73-.2a267.7,267.7,0,0,0-14.59-32.81c-.22-.43-.87-.05-.65.38Z" style="fill: rgb(38, 50, 56); transform-origin: 176.099px 401.599px;" id="el09oi1q3vdx5j" class="animable"></path><path d="M186.71,403.52s13-5.51,13.92-10.4-.61-6.76-.61-6.76,8.85-14.91,5.19-17.67c0,0,6-14.33-.77-15.27s-9.87,12.39-9.87,12.39a9.81,9.81,0,0,0-4,3.36c-2.89,4.47-2.26,14.54-2.26,14.54s-2-.87-3.1,3.63,1.48,16.18,1.48,16.18Z" style="fill: rgb(24, 47, 110); transform-origin: 196.3px 378.446px;" id="elrl9q5b8kblr" class="animable"></path><path d="M200,367.1a164.76,164.76,0,0,0-16.27,52.81h.75a163.51,163.51,0,0,1,16.17-52.43C200.87,367.05,200.22,366.67,200,367.1Z" style="fill: rgb(38, 50, 56); transform-origin: 192.212px 393.41px;" id="elbubpvwfg4l7" class="animable"></path></g><g id="freepik--Board--inject-13" class="animable animator-active" style="transform-origin: 261.205px 194.405px;"><rect x="136.15" y="114.43" width="250.11" height="159.95" style="fill: rgb(24, 47, 110); transform-origin: 261.205px 194.405px;" id="elet86mmav07h" class="animable"></rect><g id="eldh8z6h5lbvo"><rect x="136.15" y="114.43" width="250.11" height="159.95" style="fill: rgb(255, 255, 255); opacity: 0.6; transform-origin: 261.205px 194.405px;" class="animable"></rect></g><g id="el8afftxx2mvj"><rect x="187.05" y="74.66" width="148.32" height="239.48" style="fill: rgb(255, 255, 255); opacity: 0.7; transform-origin: 261.21px 194.4px; transform: rotate(90deg);" class="animable"></rect></g></g><g id="freepik--board-elements--inject-13" class="animable" style="transform-origin: 256.113px 191.694px;"><path d="M170.65,153.19c-2.44-1.36-18.4-10.67-12-19.21,3.23-4.33,10.38-2.22,12,1.42,1.62-3.64,8.77-5.75,12-1.42C189.06,142.52,173.1,151.83,170.65,153.19Z" style="fill: rgb(24, 47, 110); transform-origin: 170.652px 142.375px;" id="el1rz3e9lvewo" class="animable"></path><path d="M173,134.78a2.39,2.39,0,1,1-2.39-2.38A2.39,2.39,0,0,1,173,134.78Z" style="fill: rgb(24, 47, 110); transform-origin: 170.61px 134.79px;" id="ellepdap75nsm" class="animable"></path><g id="el0rd0pjbihhe"><path d="M173,134.78a2.39,2.39,0,1,1-2.39-2.38A2.39,2.39,0,0,1,173,134.78Z" style="opacity: 0.3; transform-origin: 170.61px 134.79px;" class="animable"></path></g><path d="M291.27,223.13c-2.45-1.36-18.41-10.67-12-19.21,3.23-4.34,10.38-2.22,12,1.42,1.61-3.64,8.76-5.76,12-1.42C309.67,212.46,293.71,221.77,291.27,223.13Z" style="fill: rgb(24, 47, 110); transform-origin: 291.268px 212.313px;" id="ela3ekrpzadkr" class="animable"></path><g id="ell663nf2008r"><path d="M291.27,223.13c-2.45-1.36-18.41-10.67-12-19.21,3.23-4.34,10.38-2.22,12,1.42,1.61-3.64,8.76-5.76,12-1.42C309.67,212.46,293.71,221.77,291.27,223.13Z" style="fill: rgb(255, 255, 255); opacity: 0.5; transform-origin: 291.268px 212.313px;" class="animable"></path></g><path d="M293.65,204.72a2.38,2.38,0,1,1-2.38-2.39A2.39,2.39,0,0,1,293.65,204.72Z" style="fill: rgb(24, 47, 110); transform-origin: 291.27px 204.71px;" id="elnxy6tywq4e" class="animable"></path><g id="el2i9lzbeetoy"><path d="M293.65,204.72a2.38,2.38,0,1,1-2.38-2.39A2.39,2.39,0,0,1,293.65,204.72Z" style="opacity: 0.3; transform-origin: 291.27px 204.71px;" class="animable"></path></g><rect x="152.1" y="166.87" width="32.77" height="32.77" style="fill: rgb(24, 47, 110); transform-origin: 168.485px 183.255px;" id="el7sh9htk8fnr" class="animable"></rect><g id="elgxtf9eppcmk"><rect x="155.19" y="169.96" width="26.59" height="26.59" style="fill: rgb(24, 47, 110); transform-origin: 168.485px 183.255px; transform: rotate(90deg);" class="animable"></rect></g><g id="elqziww795yzq"><rect x="155.19" y="169.97" width="26.59" height="26.58" style="fill: rgb(255, 255, 255); opacity: 0.2; transform-origin: 168.485px 183.26px;" class="animable"></rect></g><g id="eli1cdmc3a98s"><path d="M176.71,180.06a4.23,4.23,0,1,1-4.22-4.22A4.22,4.22,0,0,1,176.71,180.06Z" style="fill: rgb(255, 255, 255); opacity: 0.8; transform-origin: 172.48px 180.07px;" class="animable"></path></g><path d="M217.44,143.51v15.6h-15.6V146.4a5.49,5.49,0,0,1,3.47-2.89Z" style="fill: rgb(24, 47, 110); transform-origin: 209.64px 151.31px;" id="el94rxa366vom" class="animable"></path><g id="el2by6o9o2os6"><path d="M205.31,143.51v3.31l-3.47-.42A5.49,5.49,0,0,1,205.31,143.51Z" style="opacity: 0.3; transform-origin: 203.575px 145.165px;" class="animable"></path></g><g id="elhhzk3slmp8"><polygon points="211.11 145.85 211.82 141.08 208.57 141.08 208.9 145.85 211.11 145.85" style="fill: rgb(255, 255, 255); opacity: 0.5; transform-origin: 210.195px 143.465px;" class="animable"></polygon></g><path d="M248.17,140.72v15.6h-15.6V143.61a5.49,5.49,0,0,1,3.47-2.89Z" style="fill: rgb(24, 47, 110); transform-origin: 240.37px 148.52px;" id="eluszjzd7c99" class="animable"></path><g id="el1ao5yg3dbnq"><path d="M248.17,140.72v15.6h-15.6V143.61a5.49,5.49,0,0,1,3.47-2.89Z" style="fill: rgb(255, 255, 255); opacity: 0.5; transform-origin: 240.37px 148.52px;" class="animable"></path></g><path d="M236,140.72V144l-3.47-.42A5.49,5.49,0,0,1,236,140.72Z" style="fill: rgb(24, 47, 110); transform-origin: 234.265px 142.36px;" id="eljbup0og2ehk" class="animable"></path><g id="el2b21iolsy53"><polygon points="241.83 143.06 242.55 138.3 239.3 138.3 239.63 143.06 241.83 143.06" style="fill: rgb(255, 255, 255); opacity: 0.5; transform-origin: 240.925px 140.68px;" class="animable"></polygon></g><path d="M234,166.53v15.6h-15.6V169.42a5.49,5.49,0,0,1,3.47-2.89Z" style="fill: rgb(24, 47, 110); transform-origin: 226.2px 174.33px;" id="elb34dz5f1m8k" class="animable"></path><g id="elyyk8t0qgaqq"><path d="M234,166.53v15.6h-15.6V169.42a5.49,5.49,0,0,1,3.47-2.89Z" style="fill: rgb(255, 255, 255); opacity: 0.3; transform-origin: 226.2px 174.33px;" class="animable"></path></g><path d="M221.83,166.53v3.31l-3.47-.42A5.49,5.49,0,0,1,221.83,166.53Z" style="fill: rgb(24, 47, 110); transform-origin: 220.095px 168.185px;" id="ello526s01jzd" class="animable"></path><g id="elo61qbxe12a"><polygon points="227.63 168.87 228.34 164.1 225.09 164.1 225.42 168.87 227.63 168.87" style="fill: rgb(255, 255, 255); opacity: 0.5; transform-origin: 226.715px 166.485px;" class="animable"></polygon></g><path d="M170.65,166.45a2.38,2.38,0,1,1-2.38-2.38A2.38,2.38,0,0,1,170.65,166.45Z" style="fill: rgb(24, 47, 110); transform-origin: 168.27px 166.45px;" id="elzg267pvx1si" class="animable"></path><g id="elwthwrzkkojb"><path d="M170.65,166.45a2.38,2.38,0,1,1-2.38-2.38A2.38,2.38,0,0,1,170.65,166.45Z" style="opacity: 0.3; transform-origin: 168.27px 166.45px;" class="animable"></path></g><polygon points="260.04 255.81 240.37 254.24 241.79 230.52 259.79 227.97 260.04 255.81" style="fill: rgb(24, 47, 110); transform-origin: 250.205px 241.89px;" id="elumwux2rvfqr" class="animable"></polygon><polygon points="281.88 255.81 262.51 254.24 265.65 229.96 282.71 231.7 281.88 255.81" style="fill: rgb(24, 47, 110); transform-origin: 272.61px 242.885px;" id="eljfdd8isk64o" class="animable"></polygon><g id="el590ol4vo36m"><g style="opacity: 0.1; transform-origin: 272.61px 242.885px;" class="animable"><polygon points="281.88 255.81 262.51 254.24 265.65 229.96 282.71 231.7 281.88 255.81" style="fill: rgb(255, 255, 255); transform-origin: 272.61px 242.885px;" id="el3xnz7uzaaki" class="animable"></polygon></g></g><polygon points="304.8 254.24 286.81 255.81 284.57 231.7 303.02 229.3 304.8 254.24" style="fill: rgb(24, 47, 110); transform-origin: 294.685px 242.555px;" id="eliaukelsazco" class="animable"></polygon><polygon points="307.04 254.42 326.52 257.77 329.58 231.88 311.47 229.48 307.04 254.42" style="fill: rgb(24, 47, 110); transform-origin: 318.31px 243.625px;" id="elpv8n984m8i" class="animable"></polygon><g id="elwblwn48p1mi"><g style="opacity: 0.2; transform-origin: 318.31px 243.625px;" class="animable"><polygon points="307.04 254.42 326.52 257.77 329.58 231.88 311.47 229.48 307.04 254.42" id="ellrfuxms4c6" class="animable" style="transform-origin: 318.31px 243.625px;"></polygon></g></g><path d="M255.92,242a6.35,6.35,0,0,1-6.4,5.29h-4.39L247,236.74h4.38C254.74,236.74,256.46,238.94,255.92,242Zm-6.18,2.35a2.7,2.7,0,0,0,2.84-2.35,1.81,1.81,0,0,0-2-2.35h-.79l-.83,4.7Z" style="fill: rgb(255, 255, 255); transform-origin: 250.574px 242.016px;" id="elcr2lv9srzo9" class="animable"></path><path d="M273.94,236.74c2.65,0,4,1.51,4,3.45a3.09,3.09,0,0,1-2.27,3l2.29,4h-3.63l-2-3.77h0v3.77H269V236.74Zm-.3,2.76h-1.3v1.79h1.3c.63,0,1-.27,1-.9A.85.85,0,0,0,273.64,239.5Z" style="fill: rgb(38, 50, 56); transform-origin: 273.48px 241.965px;" id="eldg1ngva1qq" class="animable"></path><path d="M297.29,238.56h-3.94v2.61h3.49v1.65h-3.49v2.75h3.94v1.69h-6V236.87h6Z" style="fill: rgb(255, 255, 255); transform-origin: 294.29px 242.065px;" id="eluxpj44acvj" class="animable"></path><polygon points="353.93 254.32 334.31 255.89 331.87 231.78 351.99 229.38 353.93 254.32" style="fill: rgb(24, 47, 110); transform-origin: 342.9px 242.635px;" id="elw5q7rcqnzjn" class="animable"></polygon><path d="M337.91,237h3l1.67,7.23,4.16-7.23h3l-1.84,10.44h-2.55l1.12-6.26L343,247.44H341l-1.25-6.29-1.1,6.29h-2.54Z" style="fill: rgb(24, 47, 110); transform-origin: 342.925px 242.22px;" id="el1pgmjz7hixj" class="animable"></path><g id="elctxhq62wbf"><g style="opacity: 0.6; transform-origin: 342.925px 242.22px;" class="animable"><path d="M337.91,237h3l1.67,7.23,4.16-7.23h3l-1.84,10.44h-2.55l1.12-6.26L343,247.44H341l-1.25-6.29-1.1,6.29h-2.54Z" id="elcwqvxz1lu5o" class="animable" style="transform-origin: 342.925px 242.22px;"></path></g></g><path d="M319.72,245.85h-3.51l-.81,1.59h-3.46l5.71-10.53h3.8l2,10.53H320Zm-.79-5.41-1.48,2.93h1.91Z" style="fill: rgb(24, 47, 110); transform-origin: 317.695px 242.175px;" id="el8zhuwuu1rl6" class="animable"></path><g id="elz98wthjndt"><g style="opacity: 0.6; transform-origin: 317.695px 242.175px;" class="animable"><path d="M319.72,245.85h-3.51l-.81,1.59h-3.46l5.71-10.53h3.8l2,10.53H320Zm-.79-5.41-1.48,2.93h1.91Z" style="fill: rgb(255, 255, 255); transform-origin: 317.695px 242.175px;" id="eld9z1l6vgsqc" class="animable"></path></g></g><polygon points="181.78 179.51 181.78 196.55 155.19 196.55 155.19 191.41 163.82 182.44 172.49 190.14 181.78 179.51" style="fill: rgb(24, 47, 110); transform-origin: 168.485px 188.03px;" id="eltscr6m5h22" class="animable"></polygon><g id="elh50kwfk1ml"><polygon points="181.78 179.51 181.78 196.55 155.19 196.55 155.19 191.41 163.82 182.44 172.49 190.14 181.78 179.51" style="fill: rgb(255, 255, 255); opacity: 0.5; transform-origin: 168.485px 188.03px;" class="animable"></polygon></g><path d="M347.86,173.83v30.95H322.41V173.83h2.25a1.35,1.35,0,0,0-.32.89,1.48,1.48,0,1,0,3,0,1.4,1.4,0,0,0-.31-.89h1.5a1.45,1.45,0,0,0-.3.89,1.47,1.47,0,1,0,2.93,0,1.45,1.45,0,0,0-.3-.89h1.5a1.45,1.45,0,0,0-.3.89,1.47,1.47,0,1,0,2.94,0,1.4,1.4,0,0,0-.31-.89h1.5a1.4,1.4,0,0,0-.31.89,1.48,1.48,0,1,0,2.95,0,1.35,1.35,0,0,0-.32-.89H340a1.4,1.4,0,0,0-.31.89,1.47,1.47,0,1,0,2.94,0,1.4,1.4,0,0,0-.31-.89h1.51a1.4,1.4,0,0,0-.31.89,1.47,1.47,0,1,0,2.94,0,1.4,1.4,0,0,0-.31-.89Z" style="fill: rgb(24, 47, 110); transform-origin: 335.135px 189.305px;" id="ely11tk9lf5yo" class="animable"></path><g id="elhhimz3aw37t"><path d="M347.86,173.83v30.95H322.41V173.83h2.25a1.35,1.35,0,0,0-.32.89,1.48,1.48,0,1,0,3,0,1.4,1.4,0,0,0-.31-.89h1.5a1.45,1.45,0,0,0-.3.89,1.47,1.47,0,1,0,2.93,0,1.45,1.45,0,0,0-.3-.89h1.5a1.45,1.45,0,0,0-.3.89,1.47,1.47,0,1,0,2.94,0,1.4,1.4,0,0,0-.31-.89h1.5a1.4,1.4,0,0,0-.31.89,1.48,1.48,0,1,0,2.95,0,1.35,1.35,0,0,0-.32-.89H340a1.4,1.4,0,0,0-.31.89,1.47,1.47,0,1,0,2.94,0,1.4,1.4,0,0,0-.31-.89h1.51a1.4,1.4,0,0,0-.31.89,1.47,1.47,0,1,0,2.94,0,1.4,1.4,0,0,0-.31-.89Z" style="fill: rgb(255, 255, 255); opacity: 0.5; transform-origin: 335.135px 189.305px;" class="animable"></path></g><circle cx="335.45" cy="174.49" r="2.07" style="fill: rgb(24, 47, 110); transform-origin: 335.45px 174.49px;" id="el71vz2cgadva" class="animable"></circle><g id="el9c4fbvjx1ba"><circle cx="335.45" cy="174.49" r="2.07" style="opacity: 0.3; transform-origin: 335.45px 174.49px;" class="animable"></circle></g><rect x="324.74" y="180.77" width="20.79" height="0.44" style="fill: rgb(24, 47, 110); transform-origin: 335.135px 180.99px;" id="el8mnaqpp6str" class="animable"></rect><rect x="324.74" y="183.36" width="20.79" height="0.44" style="fill: rgb(24, 47, 110); transform-origin: 335.135px 183.58px;" id="elkmaaltjmico" class="animable"></rect><rect x="324.74" y="185.96" width="20.79" height="0.44" style="fill: rgb(24, 47, 110); transform-origin: 335.135px 186.18px;" id="elm76atdhsow" class="animable"></rect><rect x="324.74" y="188.55" width="20.79" height="0.44" style="fill: rgb(24, 47, 110); transform-origin: 335.135px 188.77px;" id="elkwwtvhi9sdq" class="animable"></rect><rect x="324.74" y="191.14" width="20.79" height="0.44" style="fill: rgb(24, 47, 110); transform-origin: 335.135px 191.36px;" id="ela7db1ntd17r" class="animable"></rect><rect x="324.74" y="193.73" width="20.79" height="0.44" style="fill: rgb(24, 47, 110); transform-origin: 335.135px 193.95px;" id="elo28xig99g9" class="animable"></rect><rect x="324.74" y="196.32" width="20.79" height="0.44" style="fill: rgb(24, 47, 110); transform-origin: 335.135px 196.54px;" id="ellwi4gzjlb5s" class="animable"></rect><rect x="324.74" y="198.91" width="20.79" height="0.44" style="fill: rgb(24, 47, 110); transform-origin: 335.135px 199.13px;" id="elntwexqxkr6o" class="animable"></rect><path d="M261.68,187.24v30.94H236.22V187.24h2.25a1.38,1.38,0,0,0-.31.89,1.47,1.47,0,0,0,2.94,0,1.43,1.43,0,0,0-.3-.89h1.5a1.38,1.38,0,0,0-.31.89,1.47,1.47,0,1,0,2.94,0,1.38,1.38,0,0,0-.31-.89h1.51a1.38,1.38,0,0,0-.31.89,1.47,1.47,0,1,0,2.94,0,1.38,1.38,0,0,0-.31-.89H250a1.43,1.43,0,0,0-.3.89,1.47,1.47,0,0,0,2.94,0,1.38,1.38,0,0,0-.31-.89h1.51a1.33,1.33,0,0,0-.32.89,1.48,1.48,0,0,0,3,0,1.33,1.33,0,0,0-.32-.89h1.52a1.33,1.33,0,0,0-.32.89,1.48,1.48,0,0,0,2.95,0,1.33,1.33,0,0,0-.32-.89Z" style="fill: rgb(24, 47, 110); transform-origin: 248.95px 202.71px;" id="elofzlmnl1i3i" class="animable"></path><g id="elttd5xjzuxes"><path d="M261.68,187.24v30.94H236.22V187.24h2.25a1.38,1.38,0,0,0-.31.89,1.47,1.47,0,0,0,2.94,0,1.43,1.43,0,0,0-.3-.89h1.5a1.38,1.38,0,0,0-.31.89,1.47,1.47,0,1,0,2.94,0,1.38,1.38,0,0,0-.31-.89h1.51a1.38,1.38,0,0,0-.31.89,1.47,1.47,0,1,0,2.94,0,1.38,1.38,0,0,0-.31-.89H250a1.43,1.43,0,0,0-.3.89,1.47,1.47,0,0,0,2.94,0,1.38,1.38,0,0,0-.31-.89h1.51a1.33,1.33,0,0,0-.32.89,1.48,1.48,0,0,0,3,0,1.33,1.33,0,0,0-.32-.89h1.52a1.33,1.33,0,0,0-.32.89,1.48,1.48,0,0,0,2.95,0,1.33,1.33,0,0,0-.32-.89Z" style="fill: rgb(255, 255, 255); opacity: 0.5; transform-origin: 248.95px 202.71px;" class="animable"></path></g><path d="M251.33,187.89a2.07,2.07,0,1,1-2.07-2.06A2.06,2.06,0,0,1,251.33,187.89Z" style="fill: rgb(24, 47, 110); transform-origin: 249.26px 187.9px;" id="eltr94m4s10wm" class="animable"></path><g id="elmeryeo5uk2"><path d="M251.33,187.89a2.07,2.07,0,1,1-2.07-2.06A2.06,2.06,0,0,1,251.33,187.89Z" style="opacity: 0.3; transform-origin: 249.26px 187.9px;" class="animable"></path></g><rect x="238.56" y="194.18" width="20.79" height="0.44" style="fill: rgb(24, 47, 110); transform-origin: 248.955px 194.4px;" id="el48kx3hjunho" class="animable"></rect><rect x="238.56" y="196.77" width="20.79" height="0.44" style="fill: rgb(24, 47, 110); transform-origin: 248.955px 196.99px;" id="elj7puwtxh349" class="animable"></rect><rect x="238.56" y="199.36" width="20.79" height="0.44" style="fill: rgb(24, 47, 110); transform-origin: 248.955px 199.58px;" id="elvdxu4f6su3s" class="animable"></rect><rect x="238.56" y="201.95" width="20.79" height="0.44" style="fill: rgb(24, 47, 110); transform-origin: 248.955px 202.17px;" id="el8m7wqnl6z2u" class="animable"></rect><rect x="238.56" y="204.54" width="20.79" height="0.44" style="fill: rgb(24, 47, 110); transform-origin: 248.955px 204.76px;" id="elswo2eu5k9bf" class="animable"></rect><rect x="238.56" y="207.13" width="20.79" height="0.44" style="fill: rgb(24, 47, 110); transform-origin: 248.955px 207.35px;" id="elarjy8uznmwk" class="animable"></rect><rect x="238.56" y="209.72" width="20.79" height="0.44" style="fill: rgb(24, 47, 110); transform-origin: 248.955px 209.94px;" id="elm3q6k4pwtya" class="animable"></rect><rect x="238.56" y="212.31" width="20.79" height="0.44" style="fill: rgb(24, 47, 110); transform-origin: 248.955px 212.53px;" id="elxs7neclja6g" class="animable"></rect><path d="M198.19,221.52H151.65a1.29,1.29,0,0,1-1.29-1.29h0a1.29,1.29,0,0,1,1.29-1.29h46.54a1.3,1.3,0,0,1,1.3,1.29h0A1.3,1.3,0,0,1,198.19,221.52Z" style="fill: rgb(24, 47, 110); transform-origin: 174.925px 220.23px;" id="elxe07i89pqbk" class="animable"></path><path d="M198.19,226H151.65a1.29,1.29,0,0,1-1.29-1.29h0a1.29,1.29,0,0,1,1.29-1.29h46.54a1.3,1.3,0,0,1,1.3,1.29h0A1.29,1.29,0,0,1,198.19,226Z" style="fill: rgb(24, 47, 110); transform-origin: 174.925px 224.71px;" id="elbc4l15lvjx" class="animable"></path><path d="M198.19,245.49H151.65a1.3,1.3,0,0,1-1.29-1.3h0a1.29,1.29,0,0,1,1.29-1.29h46.54a1.3,1.3,0,0,1,1.3,1.29h0A1.3,1.3,0,0,1,198.19,245.49Z" style="fill: rgb(24, 47, 110); transform-origin: 174.925px 244.195px;" id="elx8y2vhlmxo" class="animable"></path><path d="M198.19,249.56H151.65a1.29,1.29,0,0,1-1.29-1.29h0a1.29,1.29,0,0,1,1.29-1.29h46.54a1.3,1.3,0,0,1,1.3,1.29h0A1.3,1.3,0,0,1,198.19,249.56Z" style="fill: rgb(24, 47, 110); transform-origin: 174.925px 248.27px;" id="elw85pb1hf5" class="animable"></path><path d="M220.69,253.69H207.84a1.78,1.78,0,0,1-1.78-1.78V239.06a1.78,1.78,0,0,1,1.78-1.77h12.85a1.78,1.78,0,0,1,1.78,1.77v12.85A1.78,1.78,0,0,1,220.69,253.69Zm-12.85-15a.38.38,0,0,0-.38.37v12.85a.38.38,0,0,0,.38.38h12.85a.38.38,0,0,0,.37-.38V239.06a.38.38,0,0,0-.37-.37Z" style="fill: rgb(24, 47, 110); transform-origin: 214.265px 245.49px;" id="elsrr7y5k456" class="animable"></path><path d="M220.69,229.73H207.84a1.78,1.78,0,0,1-1.78-1.78V215.1a1.78,1.78,0,0,1,1.78-1.78h12.85a1.78,1.78,0,0,1,1.78,1.78V228A1.78,1.78,0,0,1,220.69,229.73Zm-12.85-15a.38.38,0,0,0-.38.38V228a.37.37,0,0,0,.38.37h12.85a.37.37,0,0,0,.37-.37V215.1a.38.38,0,0,0-.37-.38Z" style="fill: rgb(24, 47, 110); transform-origin: 214.265px 221.525px;" id="elbvpvpghac7s" class="animable"></path><path d="M212.7,225.93h-.12a1.15,1.15,0,0,1-.91-.59,25.56,25.56,0,0,0-3-4,1.19,1.19,0,0,1,1.73-1.62,27.23,27.23,0,0,1,2.44,3.08c2.1-2.24,7-7,11.82-9.15a1.18,1.18,0,1,1,.95,2.17c-5.81,2.52-12,9.63-12,9.71A1.21,1.21,0,0,1,212.7,225.93Z" style="fill: rgb(24, 47, 110); transform-origin: 217.369px 219.74px;" id="eled1xzp2ifhg" class="animable"></path><g id="eljzg1dpsb8as"><g style="opacity: 0.5; transform-origin: 217.369px 219.74px;" class="animable"><path d="M212.7,225.93h-.12a1.15,1.15,0,0,1-.91-.59,25.56,25.56,0,0,0-3-4,1.19,1.19,0,0,1,1.73-1.62,27.23,27.23,0,0,1,2.44,3.08c2.1-2.24,7-7,11.82-9.15a1.18,1.18,0,1,1,.95,2.17c-5.81,2.52-12,9.63-12,9.71A1.21,1.21,0,0,1,212.7,225.93Z" style="fill: rgb(255, 255, 255); transform-origin: 217.369px 219.74px;" id="elsqfvi09439" class="animable"></path></g></g><g id="elc78guwtfk2"><g style="opacity: 0.3; transform-origin: 174.925px 222.47px;" class="animable"><path d="M198.19,221.52H151.65a1.29,1.29,0,0,1-1.29-1.29h0a1.29,1.29,0,0,1,1.29-1.29h46.54a1.3,1.3,0,0,1,1.3,1.29h0A1.3,1.3,0,0,1,198.19,221.52Z" style="fill: rgb(255, 255, 255); transform-origin: 174.925px 220.23px;" id="elul530s8wd3" class="animable"></path><path d="M198.19,226H151.65a1.29,1.29,0,0,1-1.29-1.29h0a1.29,1.29,0,0,1,1.29-1.29h46.54a1.3,1.3,0,0,1,1.3,1.29h0A1.29,1.29,0,0,1,198.19,226Z" style="fill: rgb(255, 255, 255); transform-origin: 174.925px 224.71px;" id="ellrwgo257c3" class="animable"></path></g></g><g id="el2nieob78efw"><g style="opacity: 0.3; transform-origin: 174.925px 246.23px;" class="animable"><path d="M198.19,245.49H151.65a1.3,1.3,0,0,1-1.29-1.3h0a1.29,1.29,0,0,1,1.29-1.29h46.54a1.3,1.3,0,0,1,1.3,1.29h0A1.3,1.3,0,0,1,198.19,245.49Z" style="fill: rgb(255, 255, 255); transform-origin: 174.925px 244.195px;" id="elmx7nvceitm" class="animable"></path><path d="M198.19,249.56H151.65a1.29,1.29,0,0,1-1.29-1.29h0a1.29,1.29,0,0,1,1.29-1.29h46.54a1.3,1.3,0,0,1,1.3,1.29h0A1.3,1.3,0,0,1,198.19,249.56Z" style="fill: rgb(255, 255, 255); transform-origin: 174.925px 248.27px;" id="elyovgrqinhd" class="animable"></path></g></g><path d="M358.2,140.59a20.51,20.51,0,1,1-25.29-14.21A20.51,20.51,0,0,1,358.2,140.59Z" style="fill: rgb(24, 47, 110); transform-origin: 338.452px 146.127px;" id="els20rw373jj" class="animable"></path><path d="M342.83,161.74a16.21,16.21,0,1,1,11.23-20A16.22,16.22,0,0,1,342.83,161.74Z" style="fill: rgb(252, 247, 246); transform-origin: 338.455px 146.131px;" id="elmhw9l238aci" class="animable"></path><path d="M341.67,157.6a11.91,11.91,0,1,1,8.25-14.69A11.92,11.92,0,0,1,341.67,157.6Z" style="fill: rgb(24, 47, 110); transform-origin: 338.453px 146.132px;" id="ellsgwu0j4ex" class="animable"></path><path d="M340.51,153.46a7.61,7.61,0,1,1,5.27-9.39A7.62,7.62,0,0,1,340.51,153.46Z" style="fill: rgb(252, 247, 246); transform-origin: 338.454px 146.133px;" id="el3i4s7162y7b" class="animable"></path><path d="M339.35,149.32a3.31,3.31,0,1,1,2.29-4.08A3.33,3.33,0,0,1,339.35,149.32Z" style="fill: rgb(24, 47, 110); transform-origin: 338.451px 146.134px;" id="ellp20idu0de" class="animable"></path><path d="M361.41,133.49l-5-.75.75-5a.52.52,0,0,0-.44-.6.53.53,0,0,0-.6.44l-.81,5.35-1.9,1.4.65-4.31a.52.52,0,1,0-1-.16l-.82,5.35-2.4,1.77.66-4.32a.53.53,0,0,0-.44-.59.52.52,0,0,0-.6.44l-.82,5.35-10.13,7.45a1.6,1.6,0,0,0,0,1.3l10.86-8,5.17.79a.53.53,0,0,0,.15-1l-4.12-.63L353,136l5.16.78a.53.53,0,0,0,.16-1l-4.12-.62,1.9-1.4,5.16.78a.52.52,0,0,0,.6-.44A.53.53,0,0,0,361.41,133.49Z" style="fill: rgb(24, 47, 110); transform-origin: 350.119px 136.872px;" id="el0wi97xiw0hgj" class="animable"></path><g id="elac7wun3bwq7"><path d="M361.41,133.49l-5-.75.75-5a.52.52,0,0,0-.44-.6.53.53,0,0,0-.6.44l-.81,5.35-1.9,1.4.65-4.31a.52.52,0,1,0-1-.16l-.82,5.35-2.4,1.77.66-4.32a.53.53,0,0,0-.44-.59.52.52,0,0,0-.6.44l-.82,5.35-10.13,7.45a1.6,1.6,0,0,0,0,1.3l10.86-8,5.17.79a.53.53,0,0,0,.15-1l-4.12-.63L353,136l5.16.78a.53.53,0,0,0,.16-1l-4.12-.62,1.9-1.4,5.16.78a.52.52,0,0,0,.6-.44A.53.53,0,0,0,361.41,133.49Z" style="opacity: 0.3; transform-origin: 350.119px 136.872px;" class="animable"></path></g></g><g id="freepik--Furniture--inject-13" class="animable" style="transform-origin: 102.455px 329.684px;"><polygon points="143.01 306.56 132.86 455 72.04 455 61.89 306.56 143.01 306.56" style="fill: rgb(24, 47, 110); transform-origin: 102.45px 380.78px;" id="elmk74llkzzd" class="animable"></polygon><g id="elytdiinmnmxm"><polygon points="142.33 316.44 62.88 321.02 62.31 312.69 142.59 312.69 142.33 316.44" style="opacity: 0.3; transform-origin: 102.45px 316.855px;" class="animable"></polygon></g><rect x="57.03" y="303.48" width="90.85" height="9.21" rx="3.58" style="fill: rgb(24, 47, 110); transform-origin: 102.455px 308.085px;" id="el85k8zszupbq" class="animable"></rect><g id="el5o4zkp74s27"><g style="opacity: 0.3; transform-origin: 102.45px 347.175px;" class="animable"><polygon points="133.92 329.6 131.93 364.75 72.97 364.75 70.98 329.6 133.92 329.6" id="elknmq37yx6kc" class="animable" style="transform-origin: 102.45px 347.175px;"></polygon></g></g><path d="M105.39,348.63a2.94,2.94,0,1,1-2.94-2.95A2.94,2.94,0,0,1,105.39,348.63Z" style="fill: rgb(24, 47, 110); transform-origin: 102.45px 348.62px;" id="el4jzuu6tq38" class="animable"></path><g id="elsgqve8i4krr"><g style="opacity: 0.3; transform-origin: 102.45px 389px;" class="animable"><polygon points="131.15 372.98 129.33 405.02 75.57 405.02 73.75 372.98 131.15 372.98" id="elcfkmdakoz1l" class="animable" style="transform-origin: 102.45px 389px;"></polygon></g></g><path d="M105.39,390.16a2.94,2.94,0,1,1-2.94-2.94A2.94,2.94,0,0,1,105.39,390.16Z" style="fill: rgb(24, 47, 110); transform-origin: 102.45px 390.16px;" id="ell91noytzzlp" class="animable"></path><g id="elce7mrbmx04"><g style="opacity: 0.3; transform-origin: 102.45px 427.795px;" class="animable"><polygon points="128.75 413.11 127.09 442.48 77.82 442.48 76.15 413.11 128.75 413.11" id="el2o567bl0ybw" class="animable" style="transform-origin: 102.45px 427.795px;"></polygon></g></g><path d="M105.39,427.8a2.94,2.94,0,1,1-2.94-2.94A2.94,2.94,0,0,1,105.39,427.8Z" style="fill: rgb(24, 47, 110); transform-origin: 102.45px 427.8px;" id="elcwa2x3aatk8" class="animable"></path><rect x="99.6" y="244.52" width="5.72" height="58.96" style="fill: rgb(38, 50, 56); transform-origin: 102.46px 274px;" id="el76xb69mfh3k" class="animable"></rect><g id="elg9e6iaka0np"><g style="opacity: 0.2; transform-origin: 102.46px 250.805px;" class="animable"><polygon points="105.32 247.39 105.32 252.46 99.6 254.22 99.6 247.39 105.32 247.39" id="elrphprlv8c7" class="animable" style="transform-origin: 102.46px 250.805px;"></polygon></g></g><rect x="115.34" y="242.96" width="0.9" height="24.43" style="fill: rgb(38, 50, 56); transform-origin: 115.79px 255.175px;" id="el5a2j59e8hzq" class="animable"></rect><circle cx="115.79" cy="267.18" r="1.99" style="fill: rgb(24, 47, 110); transform-origin: 115.79px 267.18px;" id="elbjrqvsyqgv" class="animable"></circle><path d="M133.4,246.39a202,202,0,0,1-61.89,0l14.68-40.62a95,95,0,0,1,32.52,0Z" style="fill: rgb(24, 47, 110); transform-origin: 102.455px 226.571px;" id="elorukzwyh51c" class="animable"></path><g id="elpmz9t7xgzn"><g style="opacity: 0.3; transform-origin: 102.455px 226.571px;" class="animable"><path d="M133.4,246.39a202,202,0,0,1-61.89,0l14.68-40.62a95,95,0,0,1,32.52,0Z" style="fill: rgb(255, 255, 255); transform-origin: 102.455px 226.571px;" id="el8megywmjs84" class="animable"></path></g></g><g id="ellac1lfbnn5"><path d="M130.92,240.61c-2.48.26-4.94.47-7.38.66l-8.88-35.78a.58.58,0,0,0-.7-.42.59.59,0,0,0-.43.7l8.84,35.58c-6.56.48-13,.73-19.34.75V205a.58.58,0,1,0-1.16,0v37.15c-6.41,0-12.79-.26-19.23-.74l8.84-35.6a.58.58,0,0,0-1.12-.28l-8.89,35.8c-2.48-.19-5-.41-7.48-.68a.58.58,0,0,0-.12,1.16q3.94.4,7.84.7l.06,0,.14,0a.7.7,0,0,0,.14,0c6.75.51,13.43.78,20.15.78s13.79-.28,20.88-.81h.08c2.6-.2,5.22-.43,7.88-.69a.58.58,0,1,0-.12-1.16Z" style="opacity: 0.2; transform-origin: 102.456px 223.855px;" class="animable"></path></g><polygon points="116.49 297.65 116.49 303.48 88.42 303.48 88.42 297.65 102.46 294.42 116.49 297.65" style="fill: rgb(24, 47, 110); transform-origin: 102.455px 298.95px;" id="ely0zyor6zi7" class="animable"></polygon><g id="elry3mkk5ux4q"><g style="opacity: 0.3; transform-origin: 102.455px 298.95px;" class="animable"><polygon points="116.49 297.65 116.49 303.48 88.42 303.48 88.42 297.65 102.46 294.42 116.49 297.65" style="fill: rgb(255, 255, 255); transform-origin: 102.455px 298.95px;" id="eldgnci8hyb2o" class="animable"></polygon></g></g></g><g id="freepik--Character--inject-13" class="animable" style="transform-origin: 347.394px 286.85px;"><path d="M366.17,188.86c-6.14,4.92-12.37,9.67-18.78,14.27-3.2,2.31-6.44,4.55-9.78,6.8-1.71,1.12-3.34,2.19-5.35,3.35-.28.16-.49.29-.83.46L331,214l-.25.13-.39.18-.41.17-.21.08-.26.11A9,9,0,0,1,328,215a5.47,5.47,0,0,1-1.58,0,7.33,7.33,0,0,1-1.74-.4l-.42-.15-.2-.09-.12-.06-.2-.1-.77-.45a18.68,18.68,0,0,1-1.69-1.25c-.48-.38-.86-.72-1.28-1.08-3.14-2.8-5.94-5.52-8.75-8.33s-5.54-5.61-8.24-8.47q-8.16-8.52-15.89-17.42l4.81-5Q301,179.61,310,187.13l9,7.45c3,2.44,6,5,8.89,7.12l1,.74a7.63,7.63,0,0,0,.7.45.42.42,0,0,0-.14-.09l0,0-.24-.11-.33-.13a4.71,4.71,0,0,0-1.39-.28,8.26,8.26,0,0,0-1.23,0,5.14,5.14,0,0,0-1.11.27l-.07,0H325l-.08,0-.05,0,.07-.05.16-.09.44-.29c1.31-.88,2.89-2.06,4.38-3.18,3-2.27,6.09-4.67,9.16-7,6.11-4.76,12.3-9.52,18.51-14.17Z" style="fill: rgb(127, 62, 59); transform-origin: 326.645px 193.629px;" id="el4lqstgr5ax6" class="animable"></path><path d="M358.18,174.75,341,187.92l10.76,16,12.51-7.39S361.56,178.38,358.18,174.75Z" style="fill: rgb(38, 50, 56); transform-origin: 352.635px 189.335px;" id="eln7hu8kd3pfc" class="animable"></path><polygon points="365.74 434.71 363.23 446.72 356.91 446.72 356.22 434.71 365.74 434.71" style="fill: rgb(127, 62, 59); transform-origin: 360.98px 440.715px;" id="ely0r9r4uyoco" class="animable"></polygon><path d="M338.84,455.21c.21-3.91,1.89-5.08,4-5.21s10-2.78,10-2.78,1.56-2.49,3-3,2.89,1,2.89,1l3.95-.48s1.13-1.79,2-.22c1.35,2.42,1.42,9.14,1.36,10.71Z" style="fill: rgb(38, 50, 56); transform-origin: 352.447px 449.552px;" id="eljbk7w89antm" class="animable"></path><path d="M339.32,454.19l4.93,0,21.56-.12c.27,0,.2-.42-.07-.41h-1.46a.09.09,0,0,0,0-.06,3.92,3.92,0,0,1,1.28-5.68c.22-.13-.06-.5-.27-.36a4.28,4.28,0,0,0-1.42,6.1h-3l-21.55.11C339,453.77,339.05,454.19,339.32,454.19Z" style="fill: rgb(24, 47, 110); transform-origin: 352.54px 450.859px;" id="el3pic14v1kkr" class="animable"></path><path d="M354.09,448.91c-1.17-1.32-2.82-1.69-4-.7-.19.16-.46-.2-.27-.36,1.33-1.14,3.25-.64,4.57.85.19.22-.13.43-.32.21Z" style="fill: rgb(255, 255, 255); transform-origin: 352.102px 448.114px;" id="eleify9dp4dgo" class="animable"></path><path d="M351.88,449.61c-1.16-1.32-2.81-1.69-4-.7-.19.16-.46-.2-.28-.36,1.33-1.14,3.26-.64,4.58.85.19.22-.14.43-.33.21Z" style="fill: rgb(255, 255, 255); transform-origin: 349.889px 448.814px;" id="el1734vgef18vj" class="animable"></path><path d="M349.6,450.31c-1.16-1.31-2.82-1.69-4-.7-.18.17-.45-.2-.27-.36,1.33-1.14,3.25-.64,4.57.85.2.22-.13.43-.32.21Z" style="fill: rgb(255, 255, 255); transform-origin: 347.616px 449.514px;" id="el4rshrur4wpj" class="animable"></path><polygon points="432.58 425.01 436.37 437.11 430.23 440.18 424.58 428.52 432.58 425.01" style="fill: rgb(127, 62, 59); transform-origin: 430.475px 432.595px;" id="elt5xpaufdt6e" class="animable"></polygon><path d="M418.58,456.41c-1.72-3.52-.83-5.35,1-6.5s7.37-7.3,7.37-7.3.15-2.93,1.15-4.07,3-.55,3-.55l4-2.59s0-2.6,1.27-1.17c1.82,2.1,4.58,7.8,5.29,9.2Z" style="fill: rgb(38, 50, 56); transform-origin: 429.659px 445.105px;" id="eljn257hndfw" class="animable"></path><path d="M418.25,455l4.24-2.31L441,442.51c.24-.12,0-.48-.25-.35l-1.26.69,0,0a4.23,4.23,0,0,1-1.53-5.84c.13-.22-.28-.42-.4-.2a4.62,4.62,0,0,0,1.6,6.28c-.87.48-1.73,1-2.61,1.43L418,454.62C417.76,454.75,418,455.11,418.25,455Z" style="fill: rgb(24, 47, 110); transform-origin: 429.5px 445.868px;" id="el6w2m3ufv2nh" class="animable"></path><path d="M428.82,443.48c-1.66-.58-3.28-.1-3.81,1.33-.09.23-.5.05-.41-.18.6-1.64,2.52-2.15,4.4-1.49.28.1.09.44-.18.34Z" style="fill: rgb(255, 255, 255); transform-origin: 426.863px 443.888px;" id="ellzzpph3ia1" class="animable"></path><path d="M427.24,445.17c-1.66-.58-3.29-.11-3.81,1.33-.09.23-.5.05-.42-.18.61-1.65,2.53-2.15,4.41-1.49.27.09.09.43-.18.34Z" style="fill: rgb(255, 255, 255); transform-origin: 425.277px 445.577px;" id="elrwhx6pxjga" class="animable"></path><path d="M425.59,446.89c-1.66-.58-3.29-.1-3.81,1.33-.09.23-.5,0-.42-.18.61-1.65,2.53-2.15,4.41-1.49.27.1.09.44-.18.34Z" style="fill: rgb(255, 255, 255); transform-origin: 423.627px 447.292px;" id="el1obc87oi7nw" class="animable"></path><path d="M386.58,277.41a409.37,409.37,0,0,1-6.77,47.9c-1.13,5.86-2.43,12.09-3.9,18.73,2.46,40.12-10.39,94-10.39,94l-9.76-.22s-3.31-62.06-3.26-94.55c.08-53.23,4.85-103.93,4.85-103.93l26.56-.11S388.77,247.21,386.58,277.41Z" style="fill: rgb(24, 47, 110); transform-origin: 369.823px 338.635px;" id="elmhszzab7mbb" class="animable"></path><g id="elh8llj99kn6"><path d="M386.58,277.41a409.37,409.37,0,0,1-6.77,47.9c-6.31-21.29,2.27-66.72,2.27-66.72Z" style="opacity: 0.2; transform-origin: 382.037px 291.95px;" class="animable"></path></g><path d="M378.4,247.66s5.32,78.34,10.32,105l36.56,79.94,8.92-5S418,354.44,408.05,341.72c0,0,9.32-66.72,0-96.72Z" style="fill: rgb(24, 47, 110); transform-origin: 406.3px 338.8px;" id="elx63qo0ku01n" class="animable"></path><polygon points="425.94 435.87 423.63 432.36 435.2 426.42 436.58 430.41 425.94 435.87" style="fill: rgb(38, 50, 56); transform-origin: 430.105px 431.145px;" id="elnm5a4jne1j9" class="animable"></polygon><polygon points="354.72 440.09 354.27 435.91 367.28 435.91 366.69 440.09 354.72 440.09" style="fill: rgb(38, 50, 56); transform-origin: 360.775px 438px;" id="el3q9oxl1a58r" class="animable"></polygon><path d="M353.05,186.7c.39,10.42-7.73,16.39,2,23.85.84,8.69-3.17,25-.48,39.21a3.19,3.19,0,0,0,2.11,2.44c7.24,2.37,32.15,1.26,51-3.34a3.43,3.43,0,0,0,2.54-4.05c-2.85-13-4.35-34.11-.89-60.89a11.43,11.43,0,0,0-10-12.84c-1.78-.21-3.67-.39-5.61-.51a141.74,141.74,0,0,0-20.47-.32c-2.22.16-4.51.41-6.69.68a15.42,15.42,0,0,0-13.55,15.77" style="fill: rgb(38, 50, 56); transform-origin: 380.27px 211.716px;" id="elfg5kws69wrl" class="animable"></path><path d="M409.94,184.38a189.6,189.6,0,0,1,13.2,14.28c2.11,2.49,4.12,5.09,6.1,7.81,1,1.38,1.94,2.8,2.88,4.32.47.77.94,1.57,1.4,2.42l.34.67.17.34.08.17.18.38a8.35,8.35,0,0,1,.72,4.52,7.77,7.77,0,0,1-.79,2.62c-.1.19-.2.39-.31.57l-.32.48a7.23,7.23,0,0,1-.68.84,9.26,9.26,0,0,1-2.48,1.91,15,15,0,0,1-3.62,1.37,32.82,32.82,0,0,1-5.65.81,82.76,82.76,0,0,1-10.1,0,153.38,153.38,0,0,1-19.31-2.38l.56-6.9c6.22-.25,12.53-.56,18.62-1.06,3-.28,6.07-.58,8.85-1.11a25.91,25.91,0,0,0,3.67-.94c.46-.17.83-.39.76-.41s-.2.05-.61.46c-.07.08-.2.22-.32.38l-.15.23a2.29,2.29,0,0,0-.18.31,4.82,4.82,0,0,0-.46,1.49,4.59,4.59,0,0,0,.27,2.22l.06.12-.06-.1-.12-.18-.23-.37c-.34-.52-.71-1-1.12-1.61-.81-1.1-1.72-2.24-2.67-3.37-1.87-2.29-3.92-4.55-6-6.83s-4.17-4.53-6.3-6.78-4.28-4.53-6.34-6.75Z" style="fill: rgb(127, 62, 59); transform-origin: 413.41px 206.212px;" id="elr0vo898ub5l" class="animable"></path><path d="M406.89,175.24l11.36,14.2-14.1,12.67-10.94-11.86a10.13,10.13,0,0,1-1.92-10.4,9.86,9.86,0,0,1,2.71-3.77C399.13,171.63,406.89,175.24,406.89,175.24Z" style="fill: rgb(38, 50, 56); transform-origin: 404.433px 187.984px;" id="elxxrururqhg" class="animable"></path><path d="M360.15,143.32c.35-.59-4.36-7.3,2.78-12.08,0,0,1.52-4.32,5.39-6a9,9,0,0,1,7.27.21s1.54-4.35,8.14-3.51a7.37,7.37,0,0,1,6.77,6.93s5.57,2.34,5.68,8.22a7.7,7.7,0,0,1-2.84,5.83s2.68,5.51.84,8.65a6.88,6.88,0,0,1-4.45,3s-.13,4.3-4.28,5.14-10.59-6.3-10.59-6.3Z" style="fill: rgb(38, 50, 56); transform-origin: 377.564px 140.806px;" id="elgfl8zybl8ku" class="animable"></path><path d="M390.24,127.64s-4.05-3.18-.82-5.79c0,0-.47-3.93,3.17-4.49s4.3,2.38,4.3,2.38.9-3.39,5.79-2.19,2.76,7.21,2.76,7.21,3.2,1.88,1.95,5.26a4.05,4.05,0,0,1-4.58,2.7s1.13,3.57-1.76,4.26a6.27,6.27,0,0,1-4.86-.73Z" style="fill: rgb(38, 50, 56); transform-origin: 397.925px 127.235px;" id="eltv0dmxzka9o" class="animable"></path><path d="M390.5,129.14a9.85,9.85,0,0,1,5.69,7.11s1.72-2.29-.24-5.56c-2.36-3.93-5.71-3-5.71-3Z" style="fill: rgb(24, 47, 110); transform-origin: 393.564px 131.922px;" id="elp2jx3ou00v" class="animable"></path><path d="M371.64,170.58a2.1,2.1,0,0,0-.15.3c-1.86,8.33,9.44,6.22,14-1-3-4.06-3.64-11.14-2.93-16.25l-9.22,7.61L371.58,163a16.7,16.7,0,0,1,.79,3.89A6.47,6.47,0,0,1,371.64,170.58Z" style="fill: rgb(127, 62, 59); transform-origin: 378.388px 164.949px;" id="eladqtju4oy5r" class="animable"></path><g id="eld823spmy1im"><g style="opacity: 0.2; transform-origin: 374.865px 163.995px;" class="animable"><path d="M372.37,166.85a16.7,16.7,0,0,0-.79-3.89l1.79-1.71,4.78-.11S375.9,165.76,372.37,166.85Z" id="elbzsiexc1bg8" class="animable" style="transform-origin: 374.865px 163.995px;"></path></g></g><path d="M386.06,144.08c-1.26,9.24-1.67,11.6-6.62,16-7.46,6.64-18.24,4.66-19.71-4.77-1.33-8.49.95-22.17,10.13-25.19s17.45,4.7,16.2,13.94" style="fill: rgb(127, 62, 59); transform-origin: 372.783px 146.72px;" id="el6o24q9khxbg" class="animable"></path><path d="M367.58,155.17a3.52,3.52,0,0,1-1.57-.31.27.27,0,0,1-.08-.35.25.25,0,0,1,.34-.08,3.85,3.85,0,0,0,2.81-.06,3.1,3.1,0,0,0,1.76-2.4.24.24,0,0,1,.29-.2.25.25,0,0,1,.2.29,3.59,3.59,0,0,1-2.05,2.77A4.16,4.16,0,0,1,367.58,155.17Z" style="fill: rgb(38, 50, 56); transform-origin: 368.615px 153.468px;" id="elu56mz9k4mqa" class="animable"></path><path d="M381.94,139.15s-3,4.35-1.81,8.36,6.91,0,6.91,0S391.75,137.37,381.94,139.15Z" style="fill: rgb(38, 50, 56); transform-origin: 384.011px 144.116px;" id="el6l35xd4h057" class="animable"></path><path d="M362.24,134.66s.51,1.65,3.26.38a8.85,8.85,0,0,0,2.55-1.69,2.6,2.6,0,0,0,2.62.93A5.22,5.22,0,0,0,373,133s.68,3.24,2.5,3.22a8.31,8.31,0,0,0,2.87-.46s-1.43,2.39.64,3.67,3.45.6,3.45.6.81,3.36,3.57,4,1.82-7.44,1.82-7.44S373.52,119.74,362.24,134.66Z" style="fill: rgb(38, 50, 56); transform-origin: 375.122px 136.28px;" id="el02digsr6zvfm" class="animable"></path><path d="M372.12,145.35c-.05.76-.5,1.34-1,1.3s-.85-.68-.8-1.43.51-1.34,1-1.3.85.68.79,1.43" style="fill: rgb(38, 50, 56); transform-origin: 371.218px 145.285px;" id="elt1tmvuimlhl" class="animable"></path><path d="M364.23,145c-.06.75-.51,1.34-1,1.3s-.85-.68-.79-1.44.5-1.33,1-1.3.84.68.79,1.44" style="fill: rgb(38, 50, 56); transform-origin: 363.334px 144.93px;" id="elgwa63473ap" class="animable"></path><path d="M363.65,143.58l-1.77-.66s.82,1.49,1.77.66" style="fill: rgb(38, 50, 56); transform-origin: 362.765px 143.376px;" id="elffiqe2r2ocq" class="animable"></path><path d="M366.68,145.31s-1.46,1.91-3,3.54a1.13,1.13,0,0,0,.23,1.76,10.91,10.91,0,0,0,2.29,1Z" style="fill: rgb(99, 15, 15); transform-origin: 365.019px 148.46px;" id="el3emzvicfxy3" class="animable"></path><path d="M373.62,143.69a.42.42,0,0,1-.24-.25,3.56,3.56,0,0,0-2.35-2.2.44.44,0,1,1,.18-.87,4.41,4.41,0,0,1,3,2.74.45.45,0,0,1-.25.58.47.47,0,0,1-.33,0" style="fill: rgb(38, 50, 56); transform-origin: 372.458px 142.04px;" id="elrbjp0sv5qf" class="animable"></path><path d="M361.11,141.3a.44.44,0,0,1-.29-.17.43.43,0,0,1,.06-.62,4.43,4.43,0,0,1,4-.91.45.45,0,0,1-.27.85,3.54,3.54,0,0,0-3.13.75.46.46,0,0,1-.33.1" style="fill: rgb(38, 50, 56); transform-origin: 362.926px 140.378px;" id="el2jhh302rn4q" class="animable"></path><path d="M371.55,144l-1.78-.66s.83,1.48,1.78.66" style="fill: rgb(38, 50, 56); transform-origin: 370.66px 143.794px;" id="elytljunz0hms" class="animable"></path><path d="M388.87,150.76a6,6,0,0,1-3.9,3c-2.11.42-3-1.92-2.21-4.17.68-2,2.59-4.69,4.62-4.09s2.59,3.3,1.49,5.26" style="fill: rgb(127, 62, 59); transform-origin: 385.949px 149.612px;" id="elwaw1mo4cdq" class="animable"></path><path d="M384.56,154.69a1.53,1.53,0,1,0-.35-2.13A1.53,1.53,0,0,0,384.56,154.69Z" style="fill: rgb(255, 255, 255); transform-origin: 385.455px 153.449px;" id="elqg7nm1omqsf" class="animable"></path><g id="el1m5k9r1syyy"><rect x="257.1" y="148.41" width="33.54" height="33.54" style="fill: rgb(24, 47, 110); transform-origin: 273.87px 165.18px; transform: rotate(16deg);" class="animable"></rect></g><g id="eluqclgvpednl"><rect x="260.26" y="151.57" width="27.22" height="27.22" style="fill: rgb(24, 47, 110); transform-origin: 273.87px 165.18px; transform: rotate(106deg);" class="animable"></rect></g><g id="elmp787ormxj"><rect x="260.26" y="151.57" width="27.22" height="27.22" style="fill: rgb(255, 255, 255); opacity: 0.2; transform-origin: 273.87px 165.18px; transform: rotate(106deg);" class="animable"></rect></g><g id="elxhqq6nqaqx"><path d="M286,164.88a5.67,5.67,0,1,1-3.9-7A5.67,5.67,0,0,1,286,164.88Z" style="fill: rgb(255, 255, 255); opacity: 0.8; transform-origin: 280.545px 163.333px;" class="animable"></path></g><path d="M288.19,164.62l-5,17.39-14.77-4.23,1.43-5S277.48,162.61,288.19,164.62Z" style="fill: rgb(24, 47, 110); transform-origin: 278.305px 173.183px;" id="elmrvy8m83p3" class="animable"></path><g id="elyvu68k9mw5b"><path d="M288.19,164.62l-5,17.39-14.77-4.23,1.43-5S277.48,162.61,288.19,164.62Z" style="fill: rgb(255, 255, 255); opacity: 0.5; transform-origin: 278.305px 173.183px;" class="animable"></path></g><path d="M272.09,178.83l-15-4.32,4.71-16.43C265.05,160.16,272.61,166.28,272.09,178.83Z" style="fill: rgb(24, 47, 110); transform-origin: 264.603px 168.455px;" id="elo5pnvfn1atq" class="animable"></path><g id="el9m4tklj6fw7"><path d="M272.09,178.83l-15-4.32,4.71-16.43C265.05,160.16,272.61,166.28,272.09,178.83Z" style="fill: rgb(255, 255, 255); opacity: 0.6; transform-origin: 264.603px 168.455px;" class="animable"></path></g><path d="M293.54,173.88s1.25-7.26.63-8.76-5.25-3.87-5.75-3.93-.38,2.71,2.06,4.67a27.56,27.56,0,0,0-2.48,7,13.36,13.36,0,0,0-.14,4.69Z" style="fill: rgb(127, 62, 59); transform-origin: 291.03px 169.37px;" id="elunxb2wlw3ia" class="animable"></path><g id="elln07k98s29"><rect x="359.54" y="204.81" width="26.69" height="26.69" style="fill: rgb(24, 47, 110); transform-origin: 372.885px 218.155px; transform: rotate(-11.84deg);" class="animable"></rect></g><g id="ela37modi8gtn"><rect x="359.54" y="204.81" width="26.69" height="26.69" style="fill: rgb(255, 255, 255); opacity: 0.5; transform-origin: 372.885px 218.155px; transform: rotate(-11.84deg);" class="animable"></rect></g><path d="M385.58,213.66l-.48-2.27a15.33,15.33,0,0,1,4.5,2.4,39.76,39.76,0,0,1,3.11,4.73l-.64,6.76a38.83,38.83,0,0,1-7.54-.41c-3.42-.63-6.42-5.74-6.6-6.91s-3.71-2.58-2.64-3.39,10.29-.91,10.29-.91Z" style="fill: rgb(127, 62, 59); transform-origin: 383.899px 218.353px;" id="el8uegzqot9l7" class="animable"></path></g><defs>     <filter id="active" height="200%">         <feMorphology in="SourceAlpha" result="DILATED" operator="dilate" radius="2"></feMorphology>                <feFlood flood-color="#32DFEC" flood-opacity="1" result="PINK"></feFlood>        <feComposite in="PINK" in2="DILATED" operator="in" result="OUTLINE"></feComposite>        <feMerge>            <feMergeNode in="OUTLINE"></feMergeNode>            <feMergeNode in="SourceGraphic"></feMergeNode>        </feMerge>    </filter>    <filter id="hover" height="200%">        <feMorphology in="SourceAlpha" result="DILATED" operator="dilate" radius="2"></feMorphology>                <feFlood flood-color="#ff0000" flood-opacity="0.5" result="PINK"></feFlood>        <feComposite in="PINK" in2="DILATED" operator="in" result="OUTLINE"></feComposite>        <feMerge>            <feMergeNode in="OUTLINE"></feMergeNode>            <feMergeNode in="SourceGraphic"></feMergeNode>        </feMerge>            <feColorMatrix type="matrix" values="0   0   0   0   0                0   1   0   0   0                0   0   0   0   0                0   0   0   1   0 "></feColorMatrix>    </filter></defs></svg>